<?xml version="1.0" encoding="utf-8"?>
<!-- Generator: Adobe Illustrator 23.0.1, SVG Export Plug-In . SVG Version: 6.00 Build 0)  -->
<svg version="1.1" id="Layer_1" xmlns="http://www.w3.org/2000/svg" xmlns:xlink="http://www.w3.org/1999/xlink" x="0px" y="0px"
	 viewBox="0 0 26 26" style="enable-background:new 0 0 26 26;" xml:space="preserve">
<style type="text/css">
	.st0{fill:#FFFFFF;}
	.st1{fill:#C0D838;}
	.st2{fill:#3DC0C2;}
	.st3{fill:#044B76;}
</style>
<g>
	<path class="st0" d="M13,0C5.7,0,0,5.7,0,13s5.8,13,13,13s13-5.9,13-13C26,5.7,20.1,0,13,0z"/>
	<path class="st1" d="M12.2,8.1c-1,1-1.5,2.2-1.5,3.6c0,1.8,2.1,4.4,3.6,6.1c0.9,0.9,1.5,1.5,1.5,1.5s5.1-4.8,5.1-7.5s-2.3-5-5.1-5
		C14.4,6.7,13.1,7.3,12.2,8.1"/>
	<path class="st2" d="M14.5,17.6c0,0,0.1-0.1,0.1-0.2c0,0,0.1-0.1,0.1-0.2c0-0.1,0.1-0.1,0.1-0.2s0.1-0.1,0.1-0.2s0.1-0.1,0.1-0.2
		c0,0,0.1-0.1,0.1-0.2s0.1-0.1,0.1-0.2c0-0.1,0-0.1,0.1-0.2c0-0.1,0-0.1,0.1-0.2c0-0.1,0-0.2,0.1-0.2c0-0.1,0-0.1,0-0.2s0-0.2,0-0.3
		s0-0.1,0-0.2c0-0.1,0-0.2,0-0.4v-0.1c0-0.1,0-0.2,0-0.3v-0.1c0-0.1,0-0.1,0-0.2v-0.1c0-0.1,0-0.2-0.1-0.3v-0.1
		c0-0.1-0.1-0.2-0.1-0.3c0,0,0,0,0-0.1s-0.1-0.2-0.1-0.3V12c0-0.1-0.1-0.2-0.1-0.3v-0.1c-0.1-0.2-0.3-0.5-0.4-0.8v-0.1
		c-0.1-0.1-0.1-0.2-0.2-0.3v-0.1c-0.1-0.1-0.1-0.2-0.2-0.3l0,0c-0.1-0.1-0.2-0.2-0.3-0.3h-0.1l-0.2-0.3l-0.1-0.1
		c-0.1-0.1-0.1-0.2-0.2-0.3l0,0c-0.2-0.2-0.4-0.4-0.5-0.6l0,0l-0.2-0.3c-0.9-0.9-1.5-1.5-1.5-1.5s-5,4.8-5,7.5S8.3,19,11.2,19
		c1.3,0,2.6-0.5,3.6-1.5C14.4,17.7,14.4,17.7,14.5,17.6z"/>
	<path class="st3" d="M13,25.2C6.2,25.2,0.7,19.7,0.7,13S6.2,0.7,13,0.7S25.2,6.2,25.2,13C25.2,19.7,19.7,25.2,13,25.2z M13,1.4
		C6.6,1.4,1.4,6.6,1.4,13S6.6,24.6,13,24.6S24.6,19.4,24.6,13S19.4,1.4,13,1.4z"/>
</g>
</svg>
